<svg width="16" height="18" viewBox="0 0 16 18" fill="none" xmlns="http://www.w3.org/2000/svg">
<path d="M4.48779 1.38086V2.11914H2.97607C2.67139 2.11914 2.38135 2.17773 2.10596 2.29492C1.83057 2.41211 1.59326 2.57617 1.39404 2.78711C1.19482 2.98633 1.03369 3.22363 0.910645 3.49902C0.787598 3.77441 0.726074 4.06445 0.726074 4.36914V14.8809C0.726074 15.1855 0.784668 15.4756 0.901855 15.751C1.01904 16.0264 1.18311 16.2637 1.39404 16.4629C1.59326 16.6621 1.83057 16.8232 2.10596 16.9463C2.38135 17.0693 2.67139 17.1309 2.97607 17.1309H13.4878C13.7925 17.1309 14.0825 17.0723 14.3579 16.9551C14.6333 16.8379 14.8706 16.6738 15.0698 16.4629C15.269 16.2637 15.4302 16.0264 15.5532 15.751C15.6763 15.4756 15.7378 15.1855 15.7378 14.8809V4.36914C15.7378 4.06445 15.6792 3.77441 15.562 3.49902C15.4448 3.22363 15.2808 2.98633 15.0698 2.78711C14.8706 2.58789 14.6333 2.42676 14.3579 2.30371C14.0825 2.18066 13.7925 2.11914 13.4878 2.11914H11.9761V1.38086C11.9761 1.16992 11.9028 0.991211 11.7563 0.844727C11.6099 0.698242 11.437 0.625 11.2378 0.625C11.0269 0.625 10.8481 0.698242 10.7017 0.844727C10.5552 0.991211 10.4819 1.16992 10.4819 1.38086V2.11914H5.98193V1.38086C5.98193 1.16992 5.90869 0.991211 5.76221 0.844727C5.61572 0.698242 5.43701 0.625 5.22607 0.625C5.02686 0.625 4.854 0.698242 4.70752 0.844727C4.56104 0.991211 4.48779 1.16992 4.48779 1.38086ZM14.2261 6.61914H2.23779V4.36914C2.23779 4.27539 2.25537 4.18164 2.29053 4.08789C2.32568 3.99414 2.37842 3.91211 2.44873 3.8418C2.51904 3.77148 2.59814 3.71875 2.68604 3.68359C2.77393 3.64844 2.87061 3.63086 2.97607 3.63086H4.48779V4.36914C4.48779 4.58008 4.56104 4.75879 4.70752 4.90527C4.854 5.05176 5.02686 5.125 5.22607 5.125C5.43701 5.125 5.61572 5.05176 5.76221 4.90527C5.90869 4.75879 5.98193 4.58008 5.98193 4.36914V3.63086H10.4819V4.36914C10.4819 4.58008 10.5552 4.75879 10.7017 4.90527C10.8481 5.05176 11.0269 5.125 11.2378 5.125C11.437 5.125 11.6099 5.05176 11.7563 4.90527C11.9028 4.75879 11.9761 4.58008 11.9761 4.36914V3.63086H13.4878C13.5815 3.63086 13.6753 3.64844 13.769 3.68359C13.8628 3.71875 13.9448 3.77148 14.0151 3.8418C14.0854 3.91211 14.1382 3.99414 14.1733 4.08789C14.2085 4.18164 14.2261 4.27539 14.2261 4.36914V6.61914ZM2.23779 8.13086H14.2261V14.8809C14.2261 14.9746 14.2085 15.0684 14.1733 15.1621C14.1382 15.2559 14.0854 15.3379 14.0151 15.4082C13.9448 15.4785 13.8657 15.5312 13.7778 15.5664C13.6899 15.6016 13.5933 15.6191 13.4878 15.6191H2.97607C2.88232 15.6191 2.78857 15.6016 2.69482 15.5664C2.60107 15.5312 2.51904 15.4785 2.44873 15.4082C2.37842 15.3379 2.32568 15.2559 2.29053 15.1621C2.25537 15.0684 2.23779 14.9746 2.23779 14.8809V8.13086Z" fill="#707070"/>
</svg>
