<svg width="25" height="18" viewBox="0 0 25 18" fill="none" xmlns="http://www.w3.org/2000/svg">
<g clip-path="url(#clip0_72_3102)">
<path d="M23.2214 9.89289C21.8077 7.69795 20.0359 6.0564 17.9061 4.96823C18.4734 5.93549 18.7571 6.98181 18.7571 8.10718C18.7571 9.82779 18.1456 11.2996 16.9225 12.5226C15.6995 13.7457 14.2277 14.3572 12.5071 14.3572C10.7865 14.3572 9.31465 13.7457 8.09162 12.5226C6.86859 11.2996 6.25708 9.82779 6.25708 8.10718C6.25708 6.98181 6.54075 5.93549 7.10808 4.96823C4.97825 6.0564 3.20648 7.69795 1.79279 9.89289C3.02977 11.7995 4.58065 13.3178 6.44542 14.4479C8.31019 15.5779 10.3307 16.1429 12.5071 16.1429C14.6834 16.1429 16.704 15.5779 18.5687 14.4479C20.4335 13.3178 21.9844 11.7995 23.2214 9.89289ZM13.1767 4.53575C13.1767 4.34974 13.1116 4.19163 12.9814 4.06142C12.8512 3.93121 12.6931 3.86611 12.5071 3.86611C11.3445 3.86611 10.347 4.28231 9.51461 5.11471C8.68221 5.94711 8.26601 6.9446 8.26601 8.10718C8.26601 8.29319 8.33111 8.4513 8.46132 8.58151C8.59153 8.71172 8.74964 8.77682 8.93565 8.77682C9.12166 8.77682 9.27977 8.71172 9.40998 8.58151C9.54019 8.4513 9.60529 8.29319 9.60529 8.10718C9.60529 7.30733 9.88896 6.62373 10.4563 6.0564C11.0236 5.48906 11.7072 5.20539 12.5071 5.20539C12.6931 5.20539 12.8512 5.14029 12.9814 5.01008C13.1116 4.87987 13.1767 4.72176 13.1767 4.53575ZM25.0071 9.89289C25.0071 10.2091 24.9141 10.53 24.7281 10.8555C23.426 12.9946 21.6751 14.7083 19.4756 15.9964C17.276 17.2845 14.9531 17.9286 12.5071 17.9286C10.061 17.9286 7.7382 17.2822 5.53861 15.9894C3.33902 14.6966 1.58818 12.9853 0.286098 10.8555C0.100086 10.53 0.00708008 10.2091 0.00708008 9.89289C0.00708008 9.57667 0.100086 9.2558 0.286098 8.93028C1.58818 6.80044 3.33902 5.08913 5.53861 3.79635C7.7382 2.50357 10.061 1.85718 12.5071 1.85718C14.9531 1.85718 17.276 2.50357 19.4756 3.79635C21.6751 5.08913 23.426 6.80044 24.7281 8.93028C24.9141 9.2558 25.0071 9.57667 25.0071 9.89289Z" fill="#848484"/>
</g>
<defs>
<clipPath id="clip0_72_3102">
<rect width="25" height="17.8571" fill="white" transform="translate(0.00708008 0.0714111)"/>
</clipPath>
</defs>
</svg>
