<svg width="18" height="20" viewBox="0 0 18 20" fill="none" xmlns="http://www.w3.org/2000/svg">
<path d="M14.4173 13.2653C14.4173 13.6267 14.2737 13.9732 14.0182 14.2288C13.7627 14.4843 13.4161 14.6278 13.0548 14.6278H4.87978L2.15479 17.3528V6.45283C2.15479 6.09147 2.29833 5.74492 2.55385 5.4894C2.80937 5.23388 3.15593 5.09033 3.51728 5.09033H13.0548C13.4161 5.09033 13.7627 5.23388 14.0182 5.4894C14.2737 5.74492 14.4173 6.09147 14.4173 6.45283V13.2653Z" stroke="#7D7D7D" stroke-width="1.09" stroke-linecap="round" stroke-linejoin="round"/>
<rect x="8.67393" y="0.593262" width="8.72" height="8.72" rx="4.36" fill="url(#paint0_linear_1_2097)"/>
<path d="M12.8171 6.77271V4.07986L12.2187 4.22701L12.0618 3.60898L13.0477 3.31468H13.5627V6.77271H12.8171Z" fill="white"/>
<defs>
<linearGradient id="paint0_linear_1_2097" x1="16.2636" y1="0.593262" x2="10.0465" y2="9.31326" gradientUnits="userSpaceOnUse">
<stop stop-color="#FF5E5E"/>
<stop offset="1" stop-color="#ED1F03"/>
</linearGradient>
</defs>
</svg>
